inDegrees=no
num_controls=7
num_derivatives=13
num_iterations=46
num_multipliers=7
num_parameters=0
num_slacks=7
num_states=26
objective=0.431613
objective_accelerations=0.055237
objective_balance=0.006825
objective_effort=0.033693
objective_height=0.334765
objective_ligament=0.001093
solver_duration=596.248866
status=Solve_Succeeded
success=true
DataType=double
version=3
OpenSimVersion=4.5
endheader
time	/jointset/ground_pelvis/pelvis_tilt/value	/jointset/ground_pelvis/pelvis_tx/value	/jointset/ground_pelvis/pelvis_ty/value	/jointset/hip_l/hip_flexion_l/value	/jointset/hip_l/hip_adduction_l/value	/jointset/hip_l/hip_rotation_l/value	/jointset/back/lumbar_extension/value	/jointset/patellofemoral_l/patellar_flexion_l/value	/jointset/knee_l/knee_flexion_l/value	/jointset/knee_l/knee_adduction_l/value	/jointset/knee_l/knee_rotation_l/value	/jointset/ankle_l/ankle_angle_l/value	/jointset/subtalar_l/subtalar_angle_l/value	/jointset/ground_pelvis/pelvis_tilt/speed	/jointset/ground_pelvis/pelvis_tx/speed	/jointset/ground_pelvis/pelvis_ty/speed	/jointset/hip_l/hip_flexion_l/speed	/jointset/hip_l/hip_adduction_l/speed	/jointset/hip_l/hip_rotation_l/speed	/jointset/back/lumbar_extension/speed	/jointset/patellofemoral_l/patellar_flexion_l/speed	/jointset/knee_l/knee_flexion_l/speed	/jointset/knee_l/knee_adduction_l/speed	/jointset/knee_l/knee_rotation_l/speed	/jointset/ankle_l/ankle_angle_l/speed	/jointset/subtalar_l/subtalar_angle_l/speed	/forceset/tau_hip_flexion_l	/forceset/tau_hip_adduction_l	/forceset/tau_hip_rotation_l	/forceset/tau_knee_flexion_l	/forceset/tau_ankle_angle_l	/forceset/tau_subtalar_angle_l	/forceset/tau_lumbar_extension	lambda_cid13_p0	lambda_cid13_p1	lambda_cid13_p2	lambda_cid13_p3	lambda_cid13_p4	lambda_cid13_p5	lambda_cid14_p0	/jointset/ground_pelvis/pelvis_tilt/accel	/jointset/ground_pelvis/pelvis_tx/accel	/jointset/ground_pelvis/pelvis_ty/accel	/jointset/hip_l/hip_flexion_l/accel	/jointset/hip_l/hip_adduction_l/accel	/jointset/hip_l/hip_rotation_l/accel	/jointset/back/lumbar_extension/accel	/jointset/patellofemoral_l/patellar_flexion_l/accel	/jointset/knee_l/knee_flexion_l/accel	/jointset/knee_l/knee_adduction_l/accel	/jointset/knee_l/knee_rotation_l/accel	/jointset/ankle_l/ankle_angle_l/accel	/jointset/subtalar_l/subtalar_angle_l/accel	gamma_cid13_p0	gamma_cid13_p1	gamma_cid13_p2	gamma_cid13_p3	gamma_cid13_p4	gamma_cid13_p5	gamma_cid14_p0
1.5	-0.3544678721226053	-0.03596716194026418	0.7541700865066845	1.224990652217136	-0.3025199383745896	0.02653685960109268	-0.3388446829662091	0.8557384223472234	0.8557384223473021	-0.1714217425425549	0.1630689870596239	0.1699057118041079	-0.01577770353938211	0.4720203955267985	0.163067232667875	0.5501571347648547	-2.24017135122458	-0.02178612680925977	-0.7260534379166037	0.5756005238096106	-2.194540160744283	-2.194540160744016	0.01683420808751204	-0.05147064897762454	-0.5517379976921764	-0.1163476415181312	-0.2033436818247634	0.06688090383024035	-0.02518242497113999	-0.2555481140501544	0.1051174279662638	-0.002240078094556269	0.198057625244415	-5.369357867402819	1.600336130599398	-0.3004172281236773	-2.221079590095467	-605.4129816178588	-17.5167703081052	-18.0051764415849	0.6158022626064464	0.5963782240414744	-0.4414371513844421	-1.451245577831476	0.7097861733151285	-0.3937253172412003	1.685276052950811	-1.445609877604848	-1.445609877604852	0.07348762657097252	-0.03580554208385025	-0.6530239079905216	0.7352083260771496	4.226183199107876e-07	4.564184692811409e-07	-2.798879531301948e-06	-3.069765677184167e-07	5.321748389321256e-07	1.457496688589511e-07	4.354254897663722e-07
1.51	-0.3497170619146854	-0.03430679991032697	0.7596484411979479	1.202518640067472	-0.3027035088367545	0.01925994844855376	-0.3330057571835567	0.8337232037563272	0.8337232037563787	-0.1712541725731218	0.1625524172137252	0.1643561185947239	-0.01690599267548712	0.4780730579866191	0.168986130266956	0.5453960458747044	-2.253912290334962	-0.01491256025917464	-0.72922343608833	0.592099036356687	-2.208184203563984	-2.20818420356371	0.01664658428252227	-0.05183916027052572	-0.5580815989008384	-0.1092983736833708	-0.1966056454802584	0.06672201827500022	-0.02509810085615172	-0.2526696674483471	0.1068619540238336	-0.002798712411526943	0.192470141737445	-4.561552122299992	1.531374991631713	-0.09508882870361263	-2.485483531968618	-600.5727538250428	-17.52307900423026	-19.36288631654958	0.5897494603971938	0.5867269377007648	-0.5109912497825257	-1.287645877917805	0.678834674439476	-0.2624018441820865	1.619299401327431	-1.275993170305905	-1.275993170305111	-0.06987222533577984	-0.0361592053872598	-0.6101879941075867	0.6918066481094645	4.537277818525267e-07	5.709613819576791e-07	-2.912670748006572e-06	-3.094070021823057e-07	5.675347754425963e-07	2.481226968424613e-07	4.607739980177144e-07
1.52	-0.3449077748376193	-0.0325878326224278	0.7650756757019205	1.179918792966636	-0.3028178050777008	0.01195458435888841	-0.3270044141662883	0.8115811064000211	0.811581106400025	-0.1710894758100007	0.1620324051983895	0.1587460574198928	-0.01796338500605771	0.4837157693555418	0.1747882842602693	0.5399330973065301	-2.265738341456403	-0.007931282565720088	-0.7317440253417997	0.6080839707334396	-2.219915913829805	-2.219915913829526	0.01625956682546089	-0.05215908286318371	-0.5638315907816377	-0.1021682804112497	-0.1898676091358529	0.06656313271975393	-0.0250137767412431	-0.2497912208465254	0.1086064800814188	-0.003357346728502072	0.1868826582303731	-3.759962253909415	1.459471337826088	0.1153150818571645	-2.763883643805523	-595.8326676783556	-17.62511137452447	-20.71698966329052	0.5338120444271728	0.5730295028877956	-0.5818090869892484	-1.06826798004317	0.7313284019890408	-0.2638435335899147	1.582560418886173	-1.063143366828985	-1.06314336682898	0.03360889615672754	-0.02608780203523828	-0.5343020424181815	0.7513734135492811	4.867906965259893e-07	6.979591051702072e-07	-3.022712772909201e-06	-3.123184417670404e-07	6.085873220808084e-07	3.601424290277924e-07	4.866476725627825e-07
1.53	-0.3400441265014137	-0.03081147528905109	0.7704448498161613	1.157210199895117	-0.3028619568268576	0.004626952378771851	-0.3208460766439077	0.7893312638824833	0.789331263882486	-0.1709296591320433	0.1615096537295309	0.1530814767637189	-0.01894929504883754	0.4889357153292734	0.1804584576660398	0.5337896979204834	-2.275643864971123	-0.0008843642624411887	-0.7336988015039997	0.6234776963723379	-2.229713262308007	-2.229713262307965	0.01569846778698535	-0.05237436610418515	-0.5689730376164417	-0.09500063603858427	-0.1828791931765944	0.06610483869204974	-0.02489970245333568	-0.2472801302521632	0.1108152236960345	-0.004106476827246275	0.1810843791545536	-2.821703811975645	1.451358072619796	0.3098496569173635	-3.099202936934681	-591.172078674032	-17.67553350920699	-22.06440775673219	0.5044055696559707	0.5602390319487323	-0.6472733268924289	-0.90116982423769	0.6939637396649905	-0.1482696345829562	1.501903031215313	-0.8872369290776344	-0.8872369291134241	-0.1017508097908989	-0.01608994011058179	-0.4873480811012967	0.7016521946824945	5.219291547269081e-07	8.381900645772246e-07	-3.128771281522208e-06	-3.157409492926736e-07	6.556882669797454e-07	4.824117844275581e-07	5.130793362949342e-07
1.54	-0.3351306147663084	-0.02897917066711191	0.7757492563440466	1.134412656531026	-0.302835121353949	-0.002717622358376017	-0.3145369769861764	0.7669936066120291	0.7669936066120066	-0.1707756097456617	0.1609853811572541	0.147368825223779	-0.01986309019877924	0.493688449135408	0.1859777419727636	0.5269795800352908	-2.283528399967907	0.006266161847546864	-0.7351325767481104	0.6382363978042029	-2.237478864416673	-2.237478864416869	0.01510610851086123	-0.05246330354430263	-0.5734457675348332	-0.0877453018436252	-0.1758907772174338	0.06564654466433198	-0.0247856281655255	-0.2447690396577856	0.1130239673106627	-0.004855606926002753	0.1752861000786352	-1.887894444103974	1.439461363525447	0.5102010458292168	-3.456636955019092	-586.589946511092	-17.82820131111665	-23.40276486940373	0.4403696109081009	0.5428516830782839	-0.7151527868184583	-0.6640702764562074	0.7520499633308989	-0.1596433499720441	1.455555577479727	-0.6567940929218696	-0.6567940929218696	0.02735684862709694	-0.000818641858476349	-0.4005586591359501	0.7689113780080041	5.743795393799719e-07	9.380781450825186e-07	-3.349671747517894e-06	-3.382118334378981e-07	7.195452881193442e-07	6.032031552874199e-07	5.521410870950561e-07
